<svg viewBox="0 0 800 600" width="800" height="600" xmlns="http://www.w3.org/2000/svg" role="img" aria-label="404 illustration">
  <defs>
    <linearGradient id="g1" x1="0" y1="0" x2="1" y2="1">
      <stop offset="0" stop-color="#54F439"/>
      <stop offset="1" stop-color="#b7f7ac"/>
    </linearGradient>
    <radialGradient id="bgGlow" cx="50%" cy="35%" r="60%">
      <stop offset="0" stop-color="#54F439" stop-opacity="0.15"/>
      <stop offset="1" stop-color="#b7f7ac" stop-opacity="0"/>
    </radialGradient>

    <filter id="glass" x="-50%" y="-50%" width="200%" height="200%">
      <feGaussianBlur stdDeviation="12" result="blur"/>
      <feColorMatrix in="blur" type="matrix"
        values="1 0 0 0 0
                0 1 0 0 0
                0 0 1 0 0
                0 0 0 .35 0" result="faded"/>
      <feBlend in="SourceGraphic" in2="faded" mode="normal"/>
    </filter>

    <filter id="shadow" x="-50%" y="-50%" width="200%" height="200%">
      <feDropShadow dx="0" dy="10" stdDeviation="20" flood-opacity="0.25"/>
    </filter>

    <filter id="ringGlow" x="-50%" y="-50%" width="200%" height="200%">
      <feGaussianBlur stdDeviation="8" result="g"/>
      <feMerge>
        <feMergeNode in="g"/>
        <feMergeNode in="SourceGraphic"/>
      </feMerge>
    </filter>

    <symbol id="spark" viewBox="0 0 20 20">
      <path d="M10 0c1.2 3.9 4 6.7 8 8-4 1.3-6.8 4.1-8 8-1.2-3.9-4-6.7-8-8 4-1.3 6.8-4.1 8-8Z" fill="url(#g1)"/>
    </symbol>

    <style>
      .float-slow { animation: float 6s ease-in-out infinite; }
      .float-med  { animation: float 5s ease-in-out infinite 0.6s; }
      .float-fast { animation: float 4s ease-in-out infinite 1s; }
      @keyframes float {
        0%   { transform: translateY(0px); }
        50%  { transform: translateY(-10px); }
        100% { transform: translateY(0px); }
      }
    </style>
  </defs>


  <g transform="translate(400 220)">
    <circle r="120" fill="none" stroke="#00ffab" stroke-opacity="0.15" stroke-width="28" filter="url(#ringGlow)"/>
    <circle r="120" fill="none" stroke="url(#g1)" stroke-width="6" stroke-dasharray="40 18" class="float-slow"/>
  </g>

  <use href="#spark" x="140" y="120" width="14" height="14" class="float-fast" opacity="0.9"/>
  <use href="#spark" x="660" y="160" width="18" height="18" class="float-med"  opacity="0.8"/>
  <use href="#spark" x="700" y="420" width="12" height="12" class="float-slow" opacity="0.7"/>
  <use href="#spark" x="120" y="420" width="16" height="16" class="float-slow" opacity="0.75"/>

  <ellipse cx="400" cy="520" rx="180" ry="26" fill="#00ffab22" filter="url(#shadow)"/>
</svg>
